# xmcd
#
# Track frame offsets:
#	150
#	14627
#	29550
#	44715
#	57802
#	70225
#	84140
#	98915
#	113865
#	127447
#	139880
#	154012
#	168385
#	181882
#	195607
#	210450
#	223855
#	239440
#	254272
#	267847
#	281200
#	296007
#	309387
#	322480
#
# Disc length: 4471 seconds
#
# Revision: 1
# Processed by: cddbd v1.4PL0 Copyright (c) Steve Scherf et al.
# Submitted via: audiograbber 1.82.02
#
DISCID=7e117518
DTITLE=Mamie Smith  - Complete Recorded Works, Vol. 1
DYEAR=1900
DGENRE=Blues
TTITLE0=That Thing Called Love 
TTITLE1=You Can't Keep A Good Man Down 
TTITLE2=Crazy Blues 
TTITLE3=It's Right Here For Your (If You Don't Get It-'Tain't No Fault O'Mine) 
TTITLE4=Fare Thee Honey Blues 
TTITLE5=The Road Is Rocky (But I'm Gonna Find My Way)
TTITLE6=Mem'ries Of You Mammy 
TTITLE7=If You Don't Want Me Blues 
TTITLE8=Don't Care Blues 
TTITLE9=Lovin' Sam From Alabam 
TTITLE10=Royal Garden Blues (Instrumental) 
TTITLE11=Shim-Me-King's Blues (Instrumental) 
TTITLE12=Jazzbo Ball 
TTITLE13=What Have I Done? 
TTITLE14=That Thing Called Love (Instrumental) 
TTITLE15=Old Time Blues (Instrumental) 
TTITLE16=Baby, You Made Me Fall For You (Instrumental) 
TTITLE17=You Can't Keep A Good Man Down (Instrumental) 
TTITLE18=Frankie Blues 
TTITLE19='U' Need Some Lovin' Blues 
TTITLE20=Dangerous Blues 
TTITLE21=Daddy, Your Mama Is Lonesome For You 
TTITLE22=I Want A Jazzy Kiss 
TTITLE23=Sax-O-Phoney Blues 
EXTD=
EXTT0=
EXTT1=
EXTT2=
EXTT3=
EXTT4=
EXTT5=
EXTT6=
EXTT7=
EXTT8=
EXTT9=
EXTT10=
EXTT11=
EXTT12=
EXTT13=
EXTT14=
EXTT15=
EXTT16=
EXTT17=
EXTT18=
EXTT19=
EXTT20=
EXTT21=
EXTT22=
EXTT23=
PLAYORDER=
